<svg width="60" height="60" viewBox="0 0 60 60" fill="none" xmlns="http://www.w3.org/2000/svg">
<path d="M22.2201 29.7C16.5801 30.1 16.6001 38.3 22.2201 38.7H35.5601C37.1801 38.72 38.7401 38.1 39.9401 37.02C43.9001 33.56 41.7801 26.62 36.5801 25.96C34.7201 14.68 18.4201 18.96 22.2801 29.7" fill="#0082FB"/>
<path d="M24 51.5C15.46 51.5 8.5 44.54 8.5 36C8.5 35.18 9.18 34.5 10 34.5C10.82 34.5 11.5 35.18 11.5 36C11.5 41.92 15.62 46.88 21.16 48.18L20.62 47.28C20.2 46.56 20.42 45.64 21.14 45.22C21.84 44.8 22.78 45.02 23.2 45.74L25.3 49.24C25.58 49.7 25.58 50.28 25.32 50.74C25.04 51.2 24.54 51.5 24 51.5Z" fill="#0082FB"/>
<path d="M49.9999 25.5C49.1799 25.5 48.4999 24.82 48.4999 24C48.4999 18.08 44.3799 13.12 38.8399 11.82L39.3799 12.72C39.7999 13.44 39.5799 14.36 38.8599 14.78C38.1599 15.2 37.2199 14.98 36.7999 14.26L34.6999 10.76C34.4199 10.3 34.4199 9.72 34.6799 9.26C34.9599 8.8 35.4599 8.5 35.9999 8.5C44.5399 8.5 51.4999 15.46 51.4999 24C51.4999 24.82 50.8199 25.5 49.9999 25.5Z" fill="#0082FB"/>
</svg>
