<svg width="60" height="61" viewBox="0 0 60 61" fill="none" xmlns="http://www.w3.org/2000/svg">
<path d="M38 10.5H22C16 10.5 12 14.5 12 20.5V40.5C12 46.5 16 50.5 22 50.5H38C44 50.5 48 46.5 48 40.5V20.5C48 14.5 44 10.5 38 10.5ZM41.14 23.46L36.78 30.46C36.66 30.64 36.46 30.78 36.26 30.8C36.22 30.8 36.18 30.8 36.16 30.8C35.98 30.8 35.8 30.74 35.66 30.62C32.44 27.76 27.6 27.76 24.38 30.62C24.22 30.76 24 30.84 23.78 30.8C23.56 30.76 23.36 30.64 23.26 30.46L18.9 23.46C18.66 23.16 18.72 22.76 19 22.5C25.26 16.92 34.72 16.92 41 22.5C41.28 22.76 41.34 23.16 41.14 23.46Z" fill="#425561"/>
</svg>
