<svg width="60" height="60" viewBox="0 0 60 60" fill="none" xmlns="http://www.w3.org/2000/svg">
<path d="M34 21.75H26C25.59 21.75 25.25 21.41 25.25 21C25.25 20.59 25.59 20.25 26 20.25H34C34.41 20.25 34.75 20.59 34.75 21C34.75 21.41 34.41 21.75 34 21.75Z" fill="#0082FB"/>
<path d="M38 49.5H22C21.18 49.5 20.5 48.82 20.5 48C20.5 47.18 21.18 46.5 22 46.5H38C38.82 46.5 39.5 47.18 39.5 48C39.5 48.82 38.82 49.5 38 49.5Z" fill="#0082FB"/>
<path d="M37 16H23C18.34 16 16 18.34 16 23V37C16 41.66 18.34 44 23 44H37C41.66 44 44 41.66 44 37V23C44 18.34 41.66 16 37 16ZM35 32.5H29C28.18 32.5 27.5 31.82 27.5 31V25C27.5 24.18 28.18 23.5 29 23.5C29.82 23.5 30.5 24.18 30.5 25V29.5H35C35.82 29.5 36.5 30.18 36.5 31C36.5 31.82 35.82 32.5 35 32.5Z" fill="#0082FB"/>
</svg>
