<svg width="60" height="61" viewBox="0 0 60 61" fill="none" xmlns="http://www.w3.org/2000/svg">
<mask id="path-1-inside-1_185_801" fill="white">
<path d="M22.2201 30.2C16.5801 30.6 16.6001 38.8 22.2201 39.2H35.5601C37.1801 39.22 38.7401 38.6 39.9401 37.52C43.9001 34.06 41.7801 27.12 36.5801 26.46C34.7201 15.18 18.4201 19.46 22.2801 30.2"/>
</mask>
<path d="M22.2201 30.2C16.5801 30.6 16.6001 38.8 22.2201 39.2H35.5601C37.1801 39.22 38.7401 38.6 39.9401 37.52C43.9001 34.06 41.7801 27.12 36.5801 26.46C34.7201 15.18 18.4201 19.46 22.2801 30.2" fill="#425561"/>
<path d="M22.2201 39.2L22.1491 40.1975L22.1845 40.2H22.2201V39.2ZM35.5601 39.2L35.5724 38.2H35.5601V39.2ZM39.9401 37.52L39.2821 36.767L39.2766 36.7718L39.2711 36.7767L39.9401 37.52ZM36.5801 26.46L35.5934 26.6227L35.7147 27.3582L36.4541 27.4521L36.5801 26.46ZM22.1493 29.2025C15.2463 29.6921 15.3144 39.711 22.1491 40.1975L22.2911 38.2025C17.8857 37.889 17.9138 31.5079 22.2908 31.1975L22.1493 29.2025ZM22.2201 40.2H35.5601V38.2H22.2201V40.2ZM35.5477 40.1999C37.432 40.2232 39.2321 39.5025 40.609 38.2633L39.2711 36.7767C38.248 37.6975 36.9281 38.2168 35.5724 38.2001L35.5477 40.1999ZM40.598 38.2731C42.9228 36.2418 43.4314 33.2098 42.6517 30.6488C41.8722 28.0882 39.7611 25.8557 36.706 25.468L36.4541 27.4521C38.599 27.7243 40.148 29.2918 40.7384 31.2313C41.3287 33.1703 40.9173 35.3382 39.2821 36.767L40.598 38.2731ZM37.5667 26.2973C37.0588 23.217 35.5372 21.0968 33.5252 19.9134C31.5369 18.7439 29.1663 18.5457 27.0315 19.1052C24.8967 19.6647 22.9262 21.0006 21.7611 22.9938C20.5821 25.0107 20.2845 27.6042 21.339 30.5382L23.2211 29.8618C22.3456 27.4258 22.638 25.4568 23.4878 24.0031C24.3514 22.5257 25.8484 21.4828 27.5386 21.0398C29.2288 20.5968 31.0408 20.7724 32.5112 21.6373C33.9579 22.4882 35.1713 24.063 35.5934 26.6227L37.5667 26.2973Z" fill="black" mask="url(#path-1-inside-1_185_801)"/>
<path d="M21.0458 49.1668L22.1973 49.437L21.5887 48.4228L21.0505 47.5256C20.7649 47.0332 20.9225 46.4257 21.3919 46.1519L21.392 46.1519L21.3972 46.1487C21.866 45.8675 22.4929 46.0201 22.7681 46.4919L22.7681 46.492L22.7713 46.4972L24.8712 49.9973L24.8729 50C25.0547 50.2987 25.0581 50.6814 24.8886 50.987C24.6924 51.304 24.3513 51.5 24 51.5C15.7361 51.5 9 44.7639 9 36.5C9 35.9561 9.45614 35.5 10 35.5C10.5439 35.5 11 35.9561 11 36.5C11 42.6581 15.2856 47.8151 21.0458 49.1668Z" fill="#425561" stroke="black"/>
<path d="M38.9541 11.8332L37.8026 11.563L38.4111 12.5772L38.9494 13.4744C39.235 13.9668 39.0774 14.5743 38.6079 14.8481L38.6079 14.8481L38.6026 14.8513C38.1339 15.1325 37.507 14.9799 37.2318 14.5081L37.2318 14.508L37.2286 14.5028L35.1286 11.0028L35.1286 11.0027L35.127 11C34.9452 10.7013 34.9418 10.3186 35.1113 10.013C35.3074 9.69597 35.6485 9.5 35.9999 9.5C44.2637 9.5 50.9999 16.2361 50.9999 24.5C50.9999 25.0439 50.5437 25.5 49.9999 25.5C49.456 25.5 48.9999 25.0439 48.9999 24.5C48.9999 18.3419 44.7143 13.1849 38.9541 11.8332Z" fill="#425561" stroke="black"/>
</svg>
