<svg width="60" height="61" viewBox="0 0 60 61" fill="none" xmlns="http://www.w3.org/2000/svg">
<path d="M46.8199 20.4199V24.0799C46.8199 25.3599 46.2199 26.5599 45.1799 27.2999L23.1799 43.4199C21.7599 44.4599 19.8199 44.4599 18.4199 43.3999L15.5399 41.2399C14.2399 40.2599 13.1799 38.1399 13.1799 36.5199V20.4199C13.1799 18.1799 14.8999 15.6999 16.9999 14.9199L27.9399 10.8199C29.0799 10.3999 30.9199 10.3999 32.0599 10.8199L42.9999 14.9199C45.0999 15.6999 46.8199 18.1799 46.8199 20.4199Z" fill="#425561"/>
<path d="M43.64 31.1799C44.96 30.2199 46.82 31.1599 46.82 32.7999V36.5599C46.82 38.1799 45.76 40.2799 44.46 41.2599L33.52 49.4399C32.56 50.1399 31.28 50.4999 30 50.4999C28.72 50.4999 27.44 50.1399 26.48 49.4199L24.82 48.1799C23.74 47.3799 23.74 45.7599 24.84 44.9599L43.64 31.1799Z" fill="#425561"/>
</svg>
