<svg width="64" height="64" viewBox="0 0 64 64" fill="none" xmlns="http://www.w3.org/2000/svg">
<path d="M44.64 10H15.36C12.42 10 10 12.42 10 15.36V20.62C10 23.58 12.42 26 15.36 26H44.62C47.58 26 50 23.58 50 20.64V15.36C50 12.42 47.58 10 44.64 10ZM19.5 20C19.5 20.82 18.82 21.5 18 21.5C17.18 21.5 16.5 20.82 16.5 20V16C16.5 15.18 17.18 14.5 18 14.5C18.82 14.5 19.5 15.18 19.5 16V20ZM27.5 20C27.5 20.82 26.82 21.5 26 21.5C25.18 21.5 24.5 20.82 24.5 20V16C24.5 15.18 25.18 14.5 26 14.5C26.82 14.5 27.5 15.18 27.5 16V20ZM42 19.5H34C33.18 19.5 32.5 18.82 32.5 18C32.5 17.18 33.18 16.5 34 16.5H42C42.82 16.5 43.5 17.18 43.5 18C43.5 18.82 42.82 19.5 42 19.5Z" fill="#0082FB"/>
<path d="M44.64 34H15.36C12.42 34 10 36.42 10 39.36V44.62C10 47.58 12.42 50 15.36 50H44.62C47.58 50 49.98 47.58 49.98 44.64V39.38C50 36.42 47.58 34 44.64 34ZM19.5 44C19.5 44.82 18.82 45.5 18 45.5C17.18 45.5 16.5 44.82 16.5 44V40C16.5 39.18 17.18 38.5 18 38.5C18.82 38.5 19.5 39.18 19.5 40V44ZM27.5 44C27.5 44.82 26.82 45.5 26 45.5C25.18 45.5 24.5 44.82 24.5 44V40C24.5 39.18 25.18 38.5 26 38.5C26.82 38.5 27.5 39.18 27.5 40V44ZM42 43.5H34C33.18 43.5 32.5 42.82 32.5 42C32.5 41.18 33.18 40.5 34 40.5H42C42.82 40.5 43.5 41.18 43.5 42C43.5 42.82 42.82 43.5 42 43.5Z" fill="#0082FB"/>
</svg>
