<svg width="60" height="60" viewBox="0 0 60 60" fill="none" xmlns="http://www.w3.org/2000/svg">
<path d="M48.5 31.5C49.34 31.5 50 30.82 50 30C50 29.16 49.34 28.5 48.5 28.5H46V24.1H48.5C49.34 24.1 50 23.44 50 22.6C50 21.78 49.34 21.1 48.5 21.1H45.54C44.58 17.92 42.08 15.42 38.9 14.46V11.5C38.9 10.68 38.22 10 37.4 10C36.58 10 35.9 10.68 35.9 11.5V14H31.5V11.5C31.5 10.68 30.82 10 30 10C29.18 10 28.5 10.68 28.5 11.5V14H24.12V11.5C24.12 10.68 23.44 10 22.62 10C21.78 10 21.12 10.68 21.12 11.5V14.46C17.92 15.42 15.42 17.92 14.46 21.1H11.5C10.68 21.1 10 21.78 10 22.6C10 23.44 10.68 24.1 11.5 24.1H14V28.5H11.5C10.68 28.5 10 29.16 10 30C10 30.82 10.68 31.5 11.5 31.5H14V35.9H11.5C10.68 35.9 10 36.56 10 37.4C10 38.22 10.68 38.9 11.5 38.9H14.46C15.4 42.08 17.92 44.58 21.12 45.54V48.5C21.12 49.32 21.78 50 22.62 50C23.44 50 24.12 49.32 24.12 48.5V46H28.52V48.5C28.52 49.32 29.18 50 30.02 50C30.84 50 31.52 49.32 31.52 48.5V46H35.9V48.5C35.9 49.32 36.58 50 37.4 50C38.22 50 38.9 49.32 38.9 48.5V45.54C42.08 44.58 44.58 42.08 45.54 38.9H48.5C49.34 38.9 50 38.22 50 37.4C50 36.56 49.34 35.9 48.5 35.9H46V31.5H48.5ZM40.52 34.52C40.52 37.82 37.82 40.52 34.52 40.52H25.48C22.18 40.52 19.48 37.82 19.48 34.52V25.48C19.48 22.18 22.18 19.48 25.48 19.48H34.52C37.82 19.48 40.52 22.18 40.52 25.48V34.52Z" fill="#0082FB"/>
<path d="M26.04 38.5H33.98C36.48 38.5 38.52 36.48 38.52 33.96V26.02C38.52 23.52 36.5 21.48 33.98 21.48H26.04C23.54 21.48 21.5 23.5 21.5 26.02V33.96C21.5 36.48 23.52 38.5 26.04 38.5Z" fill="#0082FB"/>
</svg>
