<svg width="60" height="61" viewBox="0 0 60 61" fill="none" xmlns="http://www.w3.org/2000/svg">
<path d="M20.48 10.5H16.68C12.3 10.5 10 12.8 10 17.16V20.96C10 25.32 12.3 27.62 16.66 27.62H20.46C24.82 27.62 27.12 25.32 27.12 20.96V17.16C27.14 12.8 24.84 10.5 20.48 10.5Z" fill="#425561"/>
<path d="M43.3399 10.5H39.5399C35.1799 10.5 32.8799 12.8 32.8799 17.16V20.96C32.8799 25.32 35.1799 27.62 39.5399 27.62H43.3399C47.6999 27.62 49.9999 25.32 49.9999 20.96V17.16C49.9999 12.8 47.6999 10.5 43.3399 10.5Z" fill="#425561"/>
<path d="M43.3399 33.36H39.5399C35.1799 33.36 32.8799 35.66 32.8799 40.02V43.82C32.8799 48.18 35.1799 50.48 39.5399 50.48H43.3399C47.6999 50.48 49.9999 48.18 49.9999 43.82V40.02C49.9999 35.66 47.6999 33.36 43.3399 33.36Z" fill="#425561"/>
<path d="M20.48 33.36H16.68C12.3 33.36 10 35.66 10 40.02V43.82C10 48.2 12.3 50.5 16.66 50.5H20.46C24.82 50.5 27.12 48.2 27.12 43.84V40.04C27.14 35.66 24.84 33.36 20.48 33.36Z" fill="#425561"/>
</svg>
